<svg width="41" height="41" viewBox="0 0 41 41" fill="none" xmlns="http://www.w3.org/2000/svg">
<rect width="41" height="41" rx="11" fill="white"/>
<path d="M20.4375 25.8423C20.4375 27.0357 20.9116 28.1803 21.7555 29.0242C22.5994 29.8681 23.744 30.3423 24.9375 30.3423C26.131 30.3423 27.2756 29.8681 28.1195 29.0242C28.9634 28.1803 29.4375 27.0357 29.4375 25.8423C29.4375 24.6488 28.9634 23.5042 28.1195 22.6603C27.2756 21.8164 26.131 21.3423 24.9375 21.3423C23.744 21.3423 22.5994 21.8164 21.7555 22.6603C20.9116 23.5042 20.4375 24.6488 20.4375 25.8423V25.8423Z" stroke="black" stroke-width="1.125" stroke-linecap="round" stroke-linejoin="round"/>
<path d="M24.9375 23.5923V28.0923" stroke="black" stroke-width="1.125" stroke-linecap="round" stroke-linejoin="round"/>
<path d="M22.6875 25.8423H27.1875" stroke="black" stroke-width="1.125" stroke-linecap="round" stroke-linejoin="round"/>
<path d="M15.9375 14.5923H27.1875" stroke="black" stroke-width="1.125" stroke-linecap="round" stroke-linejoin="round"/>
<path d="M15.9375 19.0923H27.1875" stroke="black" stroke-width="1.125" stroke-linecap="round" stroke-linejoin="round"/>
<path d="M15.9375 23.5923H18.1875" stroke="black" stroke-width="1.125" stroke-linecap="round" stroke-linejoin="round"/>
<path d="M12.8438 14.311C12.8994 14.311 12.9538 14.3275 13 14.3584C13.0463 14.3893 13.0823 14.4332 13.1036 14.4846C13.1249 14.536 13.1304 14.5926 13.1196 14.6471C13.1087 14.7017 13.082 14.7518 13.0426 14.7911C13.0033 14.8305 12.9532 14.8572 12.8986 14.8681C12.8441 14.879 12.7875 14.8734 12.7361 14.8521C12.6847 14.8308 12.6408 14.7948 12.6099 14.7485C12.579 14.7023 12.5625 14.6479 12.5625 14.5923C12.5625 14.5177 12.5921 14.4461 12.6449 14.3934C12.6976 14.3406 12.7692 14.311 12.8438 14.311" stroke="black" stroke-width="1.125" stroke-linecap="round" stroke-linejoin="round"/>
<path d="M12.8438 18.811C12.8994 18.811 12.9538 18.8275 13 18.8584C13.0463 18.8893 13.0823 18.9332 13.1036 18.9846C13.1249 19.036 13.1304 19.0926 13.1196 19.1471C13.1087 19.2017 13.082 19.2518 13.0426 19.2911C13.0033 19.3305 12.9532 19.3572 12.8986 19.3681C12.8441 19.379 12.7875 19.3734 12.7361 19.3521C12.6847 19.3308 12.6408 19.2948 12.6099 19.2485C12.579 19.2023 12.5625 19.1479 12.5625 19.0923C12.5625 19.0177 12.5921 18.9461 12.6449 18.8934C12.6976 18.8406 12.7692 18.811 12.8438 18.811" stroke="black" stroke-width="1.125" stroke-linecap="round" stroke-linejoin="round"/>
<path d="M12.8438 23.311C12.8994 23.311 12.9538 23.3275 13 23.3584C13.0463 23.3893 13.0823 23.4332 13.1036 23.4846C13.1249 23.536 13.1304 23.5926 13.1196 23.6471C13.1087 23.7017 13.082 23.7518 13.0426 23.7911C13.0033 23.8305 12.9532 23.8572 12.8986 23.8681C12.8441 23.879 12.7875 23.8734 12.7361 23.8521C12.6847 23.8308 12.6408 23.7948 12.6099 23.7485C12.579 23.7023 12.5625 23.6479 12.5625 23.5923C12.5625 23.5177 12.5921 23.4461 12.6449 23.3934C12.6976 23.3406 12.7692 23.311 12.8438 23.311" stroke="black" stroke-width="1.125" stroke-linecap="round" stroke-linejoin="round"/>
</svg>
