<svg width="204" height="58" viewBox="0 0 204 58" fill="none" xmlns="http://www.w3.org/2000/svg">
<circle cx="29" cy="29" r="29" fill="#5418FD"/>
<path d="M30.7221 32.912C30.7221 34.32 30.2581 35.472 29.3301 36.368C28.4021 37.248 27.1061 37.776 25.4421 37.952V41.456H23.1861V37.952C21.5221 37.792 20.2101 37.248 19.2501 36.32C18.3061 35.392 17.7541 34.136 17.5941 32.552H20.3301C20.4261 33.608 20.7861 34.384 21.4101 34.88C22.0501 35.376 23.0261 35.624 24.3381 35.624C26.7381 35.624 27.9381 34.816 27.9381 33.2C27.9381 32.576 27.7461 32.096 27.3621 31.76C26.9941 31.408 26.3941 31.136 25.5621 30.944L22.2741 30.224C19.4581 29.568 18.0501 28.064 18.0501 25.712C18.0501 24.4 18.4901 23.32 19.3701 22.472C20.2661 21.608 21.5381 21.104 23.1861 20.96V17.672H25.4421V20.984C26.9461 21.176 28.1221 21.696 28.9701 22.544C29.8181 23.392 30.3061 24.504 30.4341 25.88H27.7221C27.5941 24.968 27.2421 24.312 26.6661 23.912C26.1061 23.496 25.2501 23.288 24.0981 23.288C21.9221 23.288 20.8341 24.024 20.8341 25.496C20.8341 26.072 21.0021 26.536 21.3381 26.888C21.6901 27.24 22.2821 27.512 23.1141 27.704L26.3061 28.4C29.2501 29.088 30.7221 30.592 30.7221 32.912ZM39.1795 38H36.2755V26H31.9075V23.96H32.8675C34.0515 23.96 34.9475 23.704 35.5555 23.192C36.1155 22.712 36.4755 22.032 36.6355 21.152L36.6835 20.912H39.1795V38Z" fill="white"/>
<circle cx="102" cy="29" r="29" fill="#5418FD"/>
<path d="M101.867 32.912C101.867 34.32 101.403 35.472 100.475 36.368C99.5466 37.248 98.2506 37.776 96.5866 37.952V41.456H94.3306V37.952C92.6666 37.792 91.3546 37.248 90.3946 36.32C89.4506 35.392 88.8986 34.136 88.7386 32.552H91.4746C91.5706 33.608 91.9306 34.384 92.5546 34.88C93.1946 35.376 94.1706 35.624 95.4826 35.624C97.8826 35.624 99.0826 34.816 99.0826 33.2C99.0826 32.576 98.8906 32.096 98.5066 31.76C98.1386 31.408 97.5386 31.136 96.7066 30.944L93.4186 30.224C90.6026 29.568 89.1946 28.064 89.1946 25.712C89.1946 24.4 89.6346 23.32 90.5146 22.472C91.4106 21.608 92.6826 21.104 94.3306 20.96V17.672H96.5866V20.984C98.0906 21.176 99.2666 21.696 100.115 22.544C100.963 23.392 101.451 24.504 101.579 25.88H98.8666C98.7386 24.968 98.3866 24.312 97.8106 23.912C97.2506 23.496 96.3946 23.288 95.2426 23.288C93.0666 23.288 91.9786 24.024 91.9786 25.496C91.9786 26.072 92.1466 26.536 92.4826 26.888C92.8346 27.24 93.4266 27.512 94.2586 27.704L97.4506 28.4C100.395 29.088 101.867 30.592 101.867 32.912ZM110.036 38.384C107.956 38.384 106.332 37.848 105.164 36.776C104.012 35.704 103.412 34.24 103.364 32.384H106.244C106.292 33.52 106.636 34.392 107.276 35C107.932 35.608 108.844 35.912 110.012 35.912C111.132 35.912 111.988 35.648 112.58 35.12C113.188 34.592 113.492 33.88 113.492 32.984C113.492 32.104 113.196 31.424 112.604 30.944C112.028 30.464 111.196 30.224 110.108 30.224H108.572V27.92H109.724C110.652 27.92 111.364 27.712 111.86 27.296C112.372 26.88 112.628 26.288 112.628 25.52C112.628 24.736 112.372 24.128 111.86 23.696C111.348 23.264 110.62 23.048 109.676 23.048C108.7 23.048 107.964 23.296 107.468 23.792C106.988 24.272 106.724 25.048 106.676 26.12H103.868C103.932 24.312 104.468 22.944 105.476 22.016C106.484 21.072 107.924 20.6 109.796 20.6C111.556 20.6 112.956 21.016 113.996 21.848C115.052 22.664 115.58 23.752 115.58 25.112C115.58 26.856 114.724 28.064 113.012 28.736V28.784C114.148 29.024 115.02 29.512 115.628 30.248C116.236 30.968 116.54 31.888 116.54 33.008C116.54 34.624 115.956 35.92 114.788 36.896C113.604 37.888 112.02 38.384 110.036 38.384Z" fill="white"/>
<circle cx="175" cy="29" r="29" fill="#5418FD"/>
<path d="M174.867 32.912C174.867 34.32 174.403 35.472 173.475 36.368C172.547 37.248 171.251 37.776 169.587 37.952V41.456H167.331V37.952C165.667 37.792 164.355 37.248 163.395 36.32C162.451 35.392 161.899 34.136 161.739 32.552H164.475C164.571 33.608 164.931 34.384 165.555 34.88C166.195 35.376 167.171 35.624 168.483 35.624C170.883 35.624 172.083 34.816 172.083 33.2C172.083 32.576 171.891 32.096 171.507 31.76C171.139 31.408 170.539 31.136 169.707 30.944L166.419 30.224C163.603 29.568 162.195 28.064 162.195 25.712C162.195 24.4 162.635 23.32 163.515 22.472C164.411 21.608 165.683 21.104 167.331 20.96V17.672H169.587V20.984C171.091 21.176 172.267 21.696 173.115 22.544C173.963 23.392 174.451 24.504 174.579 25.88H171.867C171.739 24.968 171.387 24.312 170.811 23.912C170.251 23.496 169.395 23.288 168.243 23.288C166.067 23.288 164.979 24.024 164.979 25.496C164.979 26.072 165.147 26.536 165.483 26.888C165.835 27.24 166.427 27.512 167.259 27.704L170.451 28.4C173.395 29.088 174.867 30.592 174.867 32.912ZM182.82 38.384C181.108 38.384 179.7 37.952 178.596 37.088C177.508 36.208 176.86 35 176.652 33.464L179.508 33.32C179.668 34.152 180.044 34.8 180.636 35.264C181.228 35.712 181.972 35.936 182.868 35.936C183.924 35.936 184.756 35.624 185.364 35C185.972 34.36 186.276 33.512 186.276 32.456C186.276 31.4 185.972 30.56 185.364 29.936C184.756 29.312 183.908 29 182.82 29C181.668 29 180.692 29.424 179.892 30.272L177.108 30.008L178.764 20.912H188.172V23.48H180.876L180.132 27.584L180.18 27.608C181.204 26.92 182.34 26.576 183.588 26.576C185.284 26.576 186.644 27.112 187.668 28.184C188.692 29.256 189.204 30.648 189.204 32.36C189.204 34.12 188.628 35.568 187.476 36.704C186.34 37.824 184.788 38.384 182.82 38.384Z" fill="white"/>
</svg>
