<svg width="41" height="41" viewBox="0 0 41 41" fill="none" xmlns="http://www.w3.org/2000/svg">
<rect width="41" height="41" rx="11" fill="white"/>
<path d="M14.2275 14.0782L22.431 16.41C22.9868 16.5926 23.4724 16.9431 23.8205 17.4133C24.1687 17.8835 24.3625 18.4501 24.375 19.035V26.9175C24.3984 27.1664 24.3608 27.4172 24.2655 27.6482C24.1702 27.8793 24.0201 28.0837 23.8281 28.2438C23.6361 28.4038 23.408 28.5146 23.1635 28.5667C22.9191 28.6188 22.6656 28.6106 22.425 28.5427L15.639 26.6978C15.0831 26.5248 14.5956 26.1813 14.2457 25.716C13.8957 25.2507 13.701 24.6871 13.689 24.105V15.516C13.6767 14.9712 13.8803 14.4437 14.2555 14.0484C14.6306 13.6532 15.1468 13.4223 15.6915 13.4062H26.0625C26.6592 13.4062 27.2315 13.6433 27.6535 14.0653C28.0755 14.4872 28.3125 15.0595 28.3125 15.6562V22.371C28.3099 22.6743 28.2474 22.9742 28.1286 23.2533C28.0099 23.5325 27.8372 23.7854 27.6206 23.9977C27.4039 24.21 27.1474 24.3775 26.8659 24.4905C26.5844 24.6035 26.2833 24.6598 25.98 24.6562H24.375" stroke="black" stroke-width="1.125" stroke-linecap="round" stroke-linejoin="round"/>
<path d="M21.2812 21.8438C21.3369 21.8438 21.3913 21.8602 21.4375 21.8911C21.4838 21.9221 21.5198 21.966 21.5411 22.0174C21.5624 22.0688 21.5679 22.1253 21.5571 22.1799C21.5462 22.2344 21.5195 22.2845 21.4801 22.3239C21.4408 22.3632 21.3907 22.39 21.3361 22.4008C21.2816 22.4117 21.225 22.4061 21.1736 22.3848C21.1222 22.3636 21.0783 22.3275 21.0474 22.2813C21.0165 22.235 21 22.1806 21 22.125C21 22.0504 21.0296 21.9789 21.0824 21.9261C21.1351 21.8734 21.2067 21.8438 21.2812 21.8438" stroke="black" stroke-width="1.125" stroke-linecap="round" stroke-linejoin="round"/>
<path d="M28.3125 19.0312H24.375" stroke="black" stroke-width="1.125" stroke-linecap="round" stroke-linejoin="round"/>
</svg>
