<svg width="41" height="41" viewBox="0 0 41 41" fill="none" xmlns="http://www.w3.org/2000/svg">
<rect width="41" height="41" rx="11" fill="white"/>
<g clip-path="url(#clip0_346:555)">
<path d="M23.8129 28.4375V22.8125C23.8129 22.5141 23.6943 22.228 23.4833 22.017C23.2724 21.806 22.9862 21.6875 22.6879 21.6875H19.3129C19.0145 21.6875 18.7283 21.806 18.5174 22.017C18.3064 22.228 18.1879 22.5141 18.1879 22.8125V28.4375H13.2979C13.0989 28.4375 12.9082 28.3585 12.7675 28.2178C12.6269 28.0772 12.5479 27.8864 12.5479 27.6875V18.3125C12.5738 18.094 12.6809 17.8933 12.8479 17.75L21.0004 11.5625L24.0004 13.8125V11.9375H27.3754V16.37L29.1529 17.75C29.3228 17.9049 29.4251 18.1204 29.4379 18.35V27.7025C29.4379 27.9014 29.3588 28.0922 29.2182 28.2328C29.0775 28.3735 28.8868 28.4525 28.6879 28.4525L23.8129 28.4375Z" stroke="black" stroke-width="1.125" stroke-linecap="round" stroke-linejoin="round"/>
</g>
<defs>
<clipPath id="clip0_346:555">
<rect width="18" height="18" fill="white" transform="translate(12 11)"/>
</clipPath>
</defs>
</svg>
