<svg width="99" height="34" viewBox="0 0 99 34" fill="none" xmlns="http://www.w3.org/2000/svg">
<path d="M43.461 3.23494V7.97089H40.0303V11.8864H43.461V19.8294C43.461 24.4162 46.0714 26.691 50.0616 26.5418C51.4413 26.5045 52.5228 26.2808 53.8279 25.7587L52.5601 21.8804C51.8888 22.2161 51.0684 22.4398 50.3599 22.4398C48.9428 22.4398 47.9733 21.5821 47.9733 19.8294V11.8864H53.0821V7.97089H48.0105V2.75015L43.461 3.23494Z" fill="black"/>
<path d="M70.3633 10.4694C69.3192 8.64213 66.9698 7.48611 64.5086 7.48611C59.1387 7.44882 54.9248 10.7677 54.9248 17.1072C54.9248 23.5585 58.9523 26.9147 64.3967 26.8774C66.4477 26.8401 69.3192 25.796 70.3633 23.6331L70.587 26.3181H74.8755V7.9336H70.5125L70.3633 10.4694ZM64.9188 11.5508C72.0787 11.5508 72.0787 22.7008 64.9188 22.7008C61.8982 22.7008 59.4743 20.6125 59.4743 17.1072C59.4743 13.6018 61.8982 11.5508 64.9188 11.5508Z" fill="black"/>
<path d="M88.3498 22.3652C85.2546 22.3652 83.1291 20.0159 83.1291 17.1445C83.1291 14.2731 85.0682 11.9237 88.3498 11.9237C91.6314 11.9237 93.5705 14.2731 93.5705 17.1445C93.5705 20.0159 91.445 22.3652 88.3498 22.3652ZM82.7189 34V24.1552C84.024 26.1689 86.8955 26.7656 88.8346 26.7656C94.7266 26.7656 98.12 22.5144 98.12 17.1445C98.12 11.7373 94.3537 7.5234 88.6854 7.5234C86.5971 7.5234 84.1359 8.41838 82.7189 10.4694L82.4205 7.9336H78.1694V34H82.7189Z" fill="black"/>
<path fill-rule="evenodd" clip-rule="evenodd" d="M1.4099 3.345C1.23552 3.16774 1.06016 2.98749 0.883797 2.80425L3.6431 0.0707045L2.28318 1.45739C3.6431 0.0707045 3.6434 0.0709928 3.64372 0.0713086L3.64658 0.074115L3.65271 0.0801626L3.67282 0.100076C3.68966 0.116793 3.71328 0.140361 3.74325 0.170523C3.80319 0.230836 3.88858 0.31758 3.99589 0.428703C4.05771 0.492715 4.12686 0.564874 4.20266 0.644785C9.4767 5.99888 12.8479 7.45464 15.6938 7.18231C17.2135 7.03689 18.8161 6.38413 20.7123 5.15275C22.6178 3.91524 24.6923 2.17984 27.1667 0L29.8908 2.76054C25.7931 7.289 23.5159 10.9987 23.1291 14.655C22.7531 18.2099 24.1272 22.1971 28.5619 27.387L25.9137 30.1978C18.2806 24.4246 14.2721 23.6943 11.5505 24.3426C10.1255 24.6821 8.82723 25.4444 7.33959 26.536C6.86447 26.8847 6.33969 27.2925 5.78011 27.7274C4.72156 28.55 3.53843 29.4694 2.33112 30.2684L0 27.17C0.824812 26.4676 2.99016 24.5757 4.88984 22.1669C6.85621 19.6734 8.20616 17.038 8.06111 14.7897C7.90567 12.3804 6.28747 9.47061 4.43259 6.95613C3.53971 5.74574 2.6548 4.70952 1.99244 3.97572C1.76911 3.7283 1.57211 3.51639 1.4099 3.345ZM10.8673 10.2972C11.4408 11.6752 11.8455 13.1138 11.9375 14.5396C12.0739 16.6537 11.4534 18.723 10.5165 20.5966C10.561 20.5855 10.6056 20.5745 10.6504 20.5639C13.504 19.8841 16.6631 20.3094 20.5898 22.2212C19.4258 19.5137 18.9872 16.8843 19.2662 14.2464C19.4278 12.7185 19.8268 11.234 20.425 9.77482C19.0156 10.4499 17.5737 10.9046 16.0639 11.0491C14.3231 11.2157 12.6105 10.9627 10.8673 10.2972Z" fill="black"/>
</svg>
